<?xml version="1.0" standalone="no"?>
<!DOCTYPE svg PUBLIC "-//W3C//DTD SVG 20010904//EN"
 "http://www.w3.org/TR/2001/REC-SVG-20010904/DTD/svg10.dtd">
<svg version="1.0" xmlns="http://www.w3.org/2000/svg"
 width="400.000000pt" height="400.000000pt" viewBox="0 0 400.000000 400.000000"
 preserveAspectRatio="xMidYMid meet">
<metadata>
Created by potrace 1.11, written by Peter Selinger 2001-2013
</metadata>
<g transform="translate(0.000000,400.000000) scale(0.100000,-0.100000)"
fill="#000000" stroke="none">
<path d="M0 2000 l0 -2000 2000 0 2000 0 0 2000 0 2000 -2000 0 -2000 0 0
-2000z m2292 1054 c150 -87 381 -219 513 -295 132 -75 240 -141 239 -146 -1
-4 -37 -29 -80 -54 -43 -25 -161 -94 -262 -153 l-182 -107 -248 142 c-136 78
-252 145 -258 150 -6 5 -206 -103 -520 -282 -280 -160 -519 -298 -532 -306
-23 -14 -20 -16 100 -85 68 -39 306 -176 531 -304 l407 -233 478 272 c262 151
503 288 535 306 l57 33 -2 -312 -3 -311 -195 -112 c-107 -62 -347 -200 -532
-306 l-338 -194 -157 91 c-87 49 -293 168 -458 262 -165 95 -335 193 -377 217
l-78 44 0 618 0 619 253 144 c138 80 378 218 532 306 154 89 285 160 292 157
6 -2 135 -75 285 -161z m-402 -959 c0 -8 -6 -15 -14 -15 -17 0 -28 14 -19 24
12 12 33 6 33 -9z m50 -81 c0 -86 -2 -95 -17 -92 -15 3 -18 16 -21 82 -3 89 0
106 23 106 12 0 15 -16 15 -96z m400 81 c0 -8 -9 -15 -20 -15 -11 0 -20 7 -20
15 0 8 9 15 20 15 11 0 20 -7 20 -15z m-307 -2 c3 -5 16 -45 30 -90 24 -78 24
-83 7 -83 -10 0 -22 9 -25 20 -4 12 -15 20 -30 20 -14 0 -25 -7 -28 -20 -3
-11 -12 -20 -21 -20 -20 0 -21 -3 10 96 23 76 42 102 57 77z m475 -31 c8 -17
9 -28 2 -30 -5 -2 -10 -24 -10 -48 0 -30 4 -43 11 -38 7 4 9 -1 7 -12 -2 -13
-11 -18 -23 -16 -27 5 -25 2 -34 69 -13 90 17 139 47 75z m300 0 c8 -17 9 -28
2 -30 -16 -6 -12 -82 5 -88 25 -10 17 -26 -12 -22 -26 3 -28 7 -31 53 -2 27
-9 53 -15 57 -8 6 -9 10 -1 16 6 4 13 15 17 25 9 24 20 21 35 -11z m-1274 -18
c9 -8 16 -26 16 -40 0 -21 -5 -24 -35 -24 -37 0 -44 -10 -20 -30 12 -10 18
-10 29 -1 16 13 32 -2 21 -19 -11 -18 -73 -12 -85 9 -37 69 24 155 74 105z
m177 -5 c5 -8 9 -38 9 -66 0 -41 -4 -53 -15 -53 -11 0 -15 11 -15 39 0 22 -3
46 -6 55 -11 29 -24 5 -24 -45 0 -42 -3 -49 -19 -49 -17 0 -20 8 -23 50 -4 67
-22 69 -26 3 -2 -38 -7 -53 -18 -53 -11 0 -14 15 -14 64 0 59 2 65 23 68 46 8
120 0 128 -13z m101 9 c10 -8 18 -34 20 -70 l5 -58 -43 0 c-29 0 -46 5 -52 16
-15 27 -2 55 29 61 29 6 37 17 20 28 -5 3 -12 1 -16 -5 -9 -15 -35 -12 -35 5
0 14 26 34 46 35 5 0 17 -6 26 -12z m363 -10 c14 -21 14 -23 -1 -26 -9 -2 -20
2 -25 9 -4 7 -11 10 -15 6 -9 -9 58 -67 69 -60 5 3 17 -3 27 -12 11 -10 20
-12 24 -6 4 6 -7 17 -24 26 -53 27 -32 95 25 81 26 -7 43 -31 31 -44 -4 -3
-16 -1 -26 6 -24 15 -30 15 -30 2 0 -5 14 -17 31 -25 24 -13 30 -22 27 -43 -2
-22 -9 -28 -36 -30 -18 -2 -39 2 -47 8 -10 9 -20 7 -38 -5 -31 -20 -77 -6 -77
25 0 24 25 27 34 4 3 -8 10 -12 16 -9 16 10 12 19 -20 37 -34 19 -40 51 -12
67 28 17 50 13 67 -11z m163 -51 c3 -62 1 -67 -18 -67 -18 0 -20 6 -20 63 0
35 3 67 7 71 17 17 28 -6 31 -67z m97 51 c14 -21 14 -23 -1 -26 -9 -2 -20 2
-25 9 -4 7 -11 10 -16 6 -4 -5 7 -19 25 -33 38 -30 40 -48 8 -69 -30 -20 -76
-5 -76 25 0 24 25 27 34 4 3 -8 10 -12 16 -9 16 10 12 19 -20 37 -34 19 -40
51 -12 67 28 17 50 13 67 -11z m179 6 c11 -10 16 -34 16 -69 l0 -53 -35 -4
c-44 -5 -65 7 -65 35 0 28 18 47 42 47 10 0 18 7 18 15 0 8 -4 15 -10 15 -5 0
-10 -4 -10 -10 0 -5 -9 -10 -20 -10 -24 0 -25 8 -3 32 20 22 46 23 67 2z m114
4 c18 -16 16 -128 -2 -128 -11 0 -16 15 -18 53 -4 66 -22 64 -26 -3 -3 -42 -6
-50 -23 -50 -17 0 -19 7 -19 64 0 35 5 66 10 68 24 8 66 5 78 -4z m-838 -63
c0 -58 -2 -65 -20 -65 -18 0 -20 7 -20 65 0 58 2 65 20 65 18 0 20 -7 20 -65z"/>
<path d="M2007 2011 c-3 -14 0 -21 9 -21 16 0 18 9 5 28 -6 10 -10 9 -14 -7z"/>
<path d="M1490 2016 c0 -9 7 -16 16 -16 17 0 14 22 -4 28 -7 2 -12 -3 -12 -12z"/>
<path d="M1775 1970 c-8 -13 4 -32 16 -25 12 8 12 35 0 35 -6 0 -13 -4 -16
-10z"/>
<path d="M2570 1965 c-10 -12 -10 -15 4 -15 9 0 16 7 16 15 0 8 -2 15 -4 15
-2 0 -9 -7 -16 -15z"/>
</g>
</svg>
